<?xml version="1.0" encoding="UTF-8"?>
<svg width="770px" height="376px" viewBox="0 0 770 376" version="1.1" xmlns="http://www.w3.org/2000/svg" xmlns:xlink="http://www.w3.org/1999/xlink">
    <g id="Page-1" stroke="none" stroke-width="1" fill="none" fill-rule="evenodd">
        <g id="kilominx" transform="translate(1.000000, 0.000000)" fill-rule="nonzero" stroke="#000000">
            <g id="U" transform="translate(125.000000, 2.000000)" fill="#FFFFFF">
                <polygon id="CORNERS-l0-o1" points="106.941137 25.8613731 142.500499 51.6967614 128.918031 93.4992979 71.3800049 74.7999878"></polygon>
                <polygon id="CORNERS-l10-o2" points="13.8455204 93.4992979 0.263052913 51.6967614 35.8224144 25.8613731 71.3800049 74.7999878"></polygon>
                <polygon id="CORNERS-l5-o0" points="35.8224144 25.8613731 71.3817758 0.0259847082 106.941137 25.8613731 71.3800049 74.7999878"></polygon>
                <polygon id="CORNERS-l4-o1" points="71.3817758 135.301834 27.4279878 135.301834 13.8455204 93.4992979 71.3800049 74.7999878"></polygon>
                <polygon id="CORNERS-l1-o1" points="128.918031 93.4992979 115.335564 135.301834 71.3817758 135.301834 71.3800049 74.7999878"></polygon>
            </g>
            <g id="F" transform="translate(125.000000, 147.000000)" fill="#006633">
                <polygon id="CORNERS-l7-o0" points="106.941137 110.263548 71.3817758 136.098936 35.8224144 110.263548 71.3800049 61.3200073"></polygon>
                <polygon id="CORNERS-l1-o0" points="71.3817758 0.82308637 115.335564 0.82308637 128.918031 42.6256228 71.3800049 61.3200073"></polygon>
                <polygon id="CORNERS-l3-o0" points="128.918031 42.6256228 142.500499 84.4281593 106.941137 110.263548 71.3800049 61.3200073"></polygon>
                <polygon id="CORNERS-l4-o2" points="13.8455204 42.6256228 27.4279878 0.82308637 71.3817758 0.82308637 71.3800049 61.3200073"></polygon>
                <polygon id="CORNERS-l9-o1" points="35.8224144 110.263548 0.263052913 84.4281593 13.8455204 42.6256228 71.3800049 61.3200073"></polygon>
            </g>
            <g id="L" transform="translate(0.000000, 92.000000)" fill="#660099">
                <polygon id="CORNERS-l13-o0" points="71.3029596 136.176914 27.3491717 136.176914 13.7667042 94.3743772 71.3000031 75.6799927"></polygon>
                <polygon id="CORNERS-l4-o0" points="106.862321 26.7364523 142.421683 52.5718407 128.839215 94.3743772 71.3000031 75.6799927"></polygon>
                <polygon id="CORNERS-l9-o0" points="128.839215 94.3743772 115.256748 136.176914 71.3029596 136.176914 71.3000031 75.6799927"></polygon>
                <polygon id="CORNERS-l10-o0" points="35.7435982 26.7364523 71.3029596 0.901063987 106.862321 26.7364523 71.3000031 75.6799927"></polygon>
                <polygon id="CORNERS-l11-o0" points="13.7667042 94.3743772 0.184236772 52.5718407 35.7435982 26.7364523 71.3000031 75.6799927"></polygon>
            </g>
            <g id="BL" transform="translate(577.000000, 0.000000)" fill="#FFFF00">
                <polygon id="CORNERS-l15-o1" points="107.480545 110.224581 71.9211839 136.059969 36.3618224 110.224581 71.9199829 61.2799988"></polygon>
                <polygon id="CORNERS-l10-o1" points="71.9211839 0.784119366 115.874972 0.784119366 129.457439 42.5866558 71.9199829 61.2799988"></polygon>
                <polygon id="CORNERS-l11-o2" points="129.457439 42.5866558 143.039907 84.3891923 107.480545 110.224581 71.9199829 61.2799988"></polygon>
                <polygon id="CORNERS-l5-o1" points="14.3849284 42.5866558 27.9673959 0.784119366 71.9211839 0.784119366 71.9199829 61.2799988"></polygon>
                <polygon id="CORNERS-l19-o2" points="36.3618224 110.224581 0.802460983 84.3891923 14.3849284 42.5866558 71.9199829 61.2799988"></polygon>
            </g>
            <g id="BR" transform="translate(423.000000, 0.000000)" fill="#0000FF">
                <polygon id="CORNERS-l12-o1" points="106.874626 110.224581 71.3152646 136.059969 35.7559031 110.224581 71.3200073 61.2799988"></polygon>
                <polygon id="CORNERS-l5-o2" points="71.3152646 0.784119366 115.269053 0.784119366 128.85152 42.5866558 71.3200073 61.2799988"></polygon>
                <polygon id="CORNERS-l19-o1" points="128.85152 42.5866558 142.433987 84.3891923 106.874626 110.224581 71.3200073 61.2799988"></polygon>
                <polygon id="CORNERS-l0-o2" points="13.7790091 42.5866558 27.3614766 0.784119366 71.3152646 0.784119366 71.3200073 61.2799988"></polygon>
                <polygon id="CORNERS-l6-o2" points="35.7559031 110.224581 0.196541688 84.3891923 13.7790091 42.5866558 71.3200073 61.2799988"></polygon>
            </g>
            <g id="R" transform="translate(250.000000, 92.000000)" fill="#FF0000">
                <polygon id="CORNERS-l6-o1" points="107.019953 26.7364523 142.579315 52.5718407 128.996847 94.3743772 71.4599915 75.6799927"></polygon>
                <polygon id="CORNERS-l1-o2" points="13.9243365 94.3743772 0.341869054 52.5718407 35.9012305 26.7364523 71.4599915 75.6799927"></polygon>
                <polygon id="CORNERS-l0-o0" points="35.9012305 26.7364523 71.4605919 0.901063987 107.019953 26.7364523 71.4599915 75.6799927"></polygon>
                <polygon id="CORNERS-l3-o1" points="71.4605919 136.176914 27.506804 136.176914 13.9243365 94.3743772 71.4599915 75.6799927"></polygon>
                <polygon id="CORNERS-l2-o2" points="128.996847 94.3743772 115.41438 136.176914 71.4605919 136.176914 71.4599915 75.6799927"></polygon>
            </g>
            <g id="C" transform="translate(202.000000, 239.000000)" fill="#FFFFD0">
                <polygon id="CORNERS-l8-o2" points="129.220991 94.4133442 115.638523 136.215881 71.6847354 136.215881 71.6799927 75.7199707"></polygon>
                <polygon id="CORNERS-l3-o2" points="36.125374 26.7754193 71.6847354 0.940030991 107.244097 26.7754193 71.6799927 75.7199707"></polygon>
                <polygon id="CORNERS-l2-o1" points="107.244097 26.7754193 142.803458 52.6108077 129.220991 94.4133442 71.6799927 75.7199707"></polygon>
                <polygon id="CORNERS-l7-o1" points="14.14848 94.4133442 0.56601256 52.6108077 36.125374 26.7754193 71.6799927 75.7199707"></polygon>
                <polygon id="CORNERS-l17-o2" points="71.6847354 136.215881 27.7309475 136.215881 14.14848 94.4133442 71.6799927 75.7219849"></polygon>
            </g>
            <g id="A" transform="translate(47.000000, 239.000000)" fill="#3399FF">
                <polygon id="CORNERS-l17-o1" points="129.615072 94.4133442 116.032604 136.215881 72.0788161 136.215881 72.0799866 75.7199707"></polygon>
                <polygon id="CORNERS-l9-o2" points="36.5194547 26.7754193 72.0788161 0.940030991 107.638178 26.7754193 72.0799866 75.7199707"></polygon>
                <polygon id="CORNERS-l7-o2" points="107.638178 26.7754193 143.197539 52.6108077 129.615072 94.4133442 72.0799866 75.7199707"></polygon>
                <polygon id="CORNERS-l13-o1" points="14.5425607 94.4133442 0.960093265 52.6108077 36.5194547 26.7754193 72.0799866 75.7199707"></polygon>
                <polygon id="CORNERS-l14-o1" points="72.0788161 136.215881 28.1250282 136.215881 14.5425607 94.4133442 72.0799866 75.7199707"></polygon>
            </g>
            <g id="I" transform="translate(625.000000, 147.000000)" fill="#FF6633">
                <polygon id="CORNERS-l18-o1" points="36.1376789 110.263548 0.578317476 84.4281593 14.1607849 42.6256228 71.7000122 61.3200073"></polygon>
                <polygon id="CORNERS-l13-o2" points="129.233296 42.6256228 142.815763 84.4281593 107.256402 110.263548 71.7000122 61.3200073"></polygon>
                <polygon id="CORNERS-l14-o0" points="107.256402 110.263548 71.6970404 136.098936 36.1376789 110.263548 71.7000122 61.3200073"></polygon>
                <polygon id="CORNERS-l11-o1" points="71.6970404 0.82308637 115.650828 0.82308637 129.233296 42.6256228 71.7000122 61.3200073"></polygon>
                <polygon id="CORNERS-l15-o2" points="14.1607849 42.6256228 27.7432524 0.82308637 71.6970404 0.82308637 71.7000122 61.3200073"></polygon>
            </g>
            <g id="BF" transform="translate(500.000000, 92.000000)" fill="#99FF00">
                <polygon id="CORNERS-l16-o1" points="71.6182242 136.176914 27.6644362 136.176914 14.0819688 94.3743772 71.6199951 75.6799927"></polygon>
                <polygon id="CORNERS-l15-o0" points="107.177586 26.7364523 142.736947 52.5718407 129.15448 94.3743772 71.6199951 75.6799927"></polygon>
                <polygon id="CORNERS-l18-o0" points="129.15448 94.3743772 115.572012 136.176914 71.6182242 136.176914 71.6199951 75.6799927"></polygon>
                <polygon id="CORNERS-l19-o0" points="36.0588628 26.7364523 71.6182242 0.901063987 107.177586 26.7364523 71.6199951 75.6799927"></polygon>
                <polygon id="CORNERS-l12-o2" points="14.0819688 94.3743772 0.499501336 52.5718407 36.0588628 26.7364523 71.6199951 75.6799927"></polygon>
            </g>
            <g id="E" transform="translate(375.000000, 147.000000)" fill="#FF66CC">
                <polygon id="CORNERS-l8-o0" points="107.09877 110.263548 71.5394081 136.098936 35.9800466 110.263548 71.539978 61.3200073"></polygon>
                <polygon id="CORNERS-l12-o0" points="71.5394081 0.82308637 115.493196 0.82308637 129.075663 42.6256228 71.539978 61.3200073"></polygon>
                <polygon id="CORNERS-l16-o0" points="129.075663 42.6256228 142.658131 84.4281593 107.09877 110.263548 71.539978 61.3200073"></polygon>
                <polygon id="CORNERS-l6-o0" points="14.0031526 42.6256228 27.5856201 0.82308637 71.5394081 0.82308637 71.539978 61.3200073"></polygon>
                <polygon id="CORNERS-l2-o0" points="35.9800466 110.263548 0.420685195 84.4281593 14.0031526 42.6256228 71.539978 61.3200073"></polygon>
            </g>
            <g id="D" transform="translate(500.000000, 238.000000)" fill="#999999">
                <polygon id="CORNERS-l18-o2" points="71.6182242 0.698165648 115.572012 0.698165648 129.15448 42.5007021 71.6199951 61.7199707"></polygon>
                <polygon id="CORNERS-l8-o1" points="36.0588628 110.138627 0.499501336 84.3032386 14.0819688 42.5007021 71.6199951 61.7199707"></polygon>
                <polygon id="CORNERS-l16-o2" points="14.0819688 42.5007021 27.6644362 0.698165648 71.6182242 0.698165648 71.6199951 61.7299805"></polygon>
                <polygon id="CORNERS-l17-o0" points="107.177586 110.138627 71.6182242 135.974015 36.0588628 110.138627 71.6199951 61.7199707"></polygon>
                <polygon id="CORNERS-l14-o2" points="129.15448 42.5007021 142.736947 84.3032386 107.177586 110.138627 71.6199951 61.7199707"></polygon>
            </g>
        </g>
    </g>
</svg>
