<?xml version="1.0" encoding="UTF-8"?>
<svg width="360px" height="480px" viewBox="0 0 360 480" version="1.1" xmlns="http://www.w3.org/2000/svg" xmlns:xlink="http://www.w3.org/1999/xlink">
    <!-- Generator: Sketch 59.1 (86144) - https://sketch.com -->
    <title>sq1</title>
    <desc>Created with Sketch.</desc>
    <g id="sq1" stroke="none" stroke-width="1" fill="none" fill-rule="evenodd">
        <rect id="EQUATOR-l1-o0" stroke="#000000" style="fill: red" x="180" y="216" width="84" height="48"></rect>
        <rect id="EQUATOR-l0-o0" stroke="#000000" style="fill: red" x="96" y="216" width="84" height="48"></rect>
        <rect id="EQUATOR-l0-o1" stroke="#000000" style="fill: orange" x="12" y="216" width="84" height="48"></rect>
        <rect id="EQUATOR-l1-o1" stroke="#000000" style="fill: orange" x="264" y="216" width="84" height="48"></rect>
        <polygon id="WEDGE-l0-o0" stroke="#000000" style="fill: yellow" stroke-linejoin="round" points="204 120 192 168 168 156"></polygon>
        <polygon id="WEDGE-l1-o0" stroke="#000000" style="fill: yellow" stroke-linejoin="round" points="204 120 168 156 156 132"></polygon>
        <polygon id="WEDGE-l2-o0" stroke="#000000" style="fill: yellow" stroke-linejoin="round" points="204 120 156 132 156 108"></polygon>
        <polygon id="WEDGE-l0-o1" stroke="#000000" style="fill: red" stroke-linejoin="round" points="192 168 180 216 132 192 168 156"></polygon>
        <polygon id="WEDGE-l1-o1" stroke="#000000" style="fill: blue" stroke-linejoin="round" points="168 156 132 192 108 144 156 132"></polygon>
        <polygon id="WEDGE-l2-o1" stroke="#000000" style="fill: blue" stroke-linejoin="round" points="156 132 108 144 108 96 156 108"></polygon>
        <polygon id="WEDGE-l3-o0" stroke="#000000" style="fill: yellow" stroke-linejoin="round" transform="translate(180.000000, 102.000000) rotate(90.000000) translate(-180.000000, -102.000000) " points="198 78 186 126 162 114"></polygon>
        <polygon id="WEDGE-l4-o0" stroke="#000000" style="fill: yellow" stroke-linejoin="round" transform="translate(186.000000, 96.000000) rotate(90.000000) translate(-186.000000, -96.000000) " points="210 78 174 114 162 90"></polygon>
        <polygon id="WEDGE-l5-o0" stroke="#000000" style="fill: yellow" stroke-linejoin="round" transform="translate(204.000000, 96.000000) rotate(90.000000) translate(-204.000000, -96.000000) " points="228 96 180 108 180 84"></polygon>
        <polygon id="WEDGE-l3-o1" stroke="#000000" style="fill: blue" stroke-linejoin="round" transform="translate(138.000000, 78.000000) rotate(90.000000) translate(-138.000000, -78.000000) " points="168 60 156 108 108 84 144 48"></polygon>
        <polygon id="WEDGE-l4-o1" stroke="#000000" style="fill: orange" stroke-linejoin="round" transform="translate(162.000000, 54.000000) rotate(90.000000) translate(-162.000000, -54.000000) " points="192 48 156 84 132 36 180 24"></polygon>
        <polygon id="WEDGE-l5-o1" stroke="#000000" style="fill: orange" stroke-linejoin="round" transform="translate(204.000000, 48.000000) rotate(90.000000) translate(-204.000000, -48.000000) " points="228 60 180 72 180 24 228 36"></polygon>
        <polygon id="WEDGE-l6-o0" stroke="#000000" style="fill: yellow" stroke-linejoin="round" transform="translate(222.000000, 96.000000) rotate(180.000000) translate(-222.000000, -96.000000) " points="240 72 228 120 204 108"></polygon>
        <polygon id="WEDGE-l7-o0" stroke="#000000" style="fill: yellow" stroke-linejoin="round" transform="translate(228.000000, 102.000000) rotate(180.000000) translate(-228.000000, -102.000000) " points="252 84 216 120 204 96"></polygon>
        <polygon id="WEDGE-l8-o0" stroke="#000000" style="fill: yellow" stroke-linejoin="round" transform="translate(228.000000, 120.000000) rotate(180.000000) translate(-228.000000, -120.000000) " points="252 120 204 132 204 108"></polygon>
        <polygon id="WEDGE-l6-o1" stroke="#000000" style="fill: orange" stroke-linejoin="round" transform="translate(246.000000, 54.000000) rotate(180.000000) translate(-246.000000, -54.000000) " points="276 36 264 84 216 60 252 24"></polygon>
        <polygon id="WEDGE-l7-o1" stroke="#000000" style="fill: green" stroke-linejoin="round" transform="translate(270.000000, 78.000000) rotate(180.000000) translate(-270.000000, -78.000000) " points="300 72 264 108 240 60 288 48"></polygon>
        <polygon id="WEDGE-l8-o1" stroke="#000000" style="fill: green" stroke-linejoin="round" transform="translate(276.000000, 120.000000) rotate(180.000000) translate(-276.000000, -120.000000) " points="300 132 252 144 252 96 300 108"></polygon>
        <polygon id="WEDGE-l9-o0" stroke="#000000" style="fill: yellow" stroke-linejoin="round" transform="translate(228.000000, 138.000000) rotate(270.000000) translate(-228.000000, -138.000000) " points="246 114 234 162 210 150"></polygon>
        <polygon id="WEDGE-l10-o0" stroke="#000000" style="fill: yellow" stroke-linejoin="round" transform="translate(222.000000, 144.000000) rotate(270.000000) translate(-222.000000, -144.000000) " points="246 126 210 162 198 138"></polygon>
        <polygon id="WEDGE-l11-o0" stroke="#000000" style="fill: yellow" stroke-linejoin="round" transform="translate(204.000000, 144.000000) rotate(270.000000) translate(-204.000000, -144.000000) " points="228 144 180 156 180 132"></polygon>
        <polygon id="WEDGE-l9-o1" stroke="#000000" style="fill: green" stroke-linejoin="round" transform="translate(270.000000, 162.000000) rotate(270.000000) translate(-270.000000, -162.000000) " points="300 144 288 192 240 168 276 132"></polygon>
        <polygon id="WEDGE-l10-o1" stroke="#000000" style="fill: red" stroke-linejoin="round" transform="translate(246.000000, 186.000000) rotate(270.000000) translate(-246.000000, -186.000000) " points="276 180 240 216 216 168 264 156"></polygon>
        <polygon id="WEDGE-l11-o1" stroke="#000000" style="fill: red" stroke-linejoin="round" transform="translate(204.000000, 192.000000) rotate(270.000000) translate(-204.000000, -192.000000) " points="228 204 180 216 180 168 228 180"></polygon>
        <polygon id="WEDGE-l19-o0" stroke="#000000" style="fill: white" stroke-linejoin="round" points="204 360 192 408 168 396"></polygon>
        <polygon id="WEDGE-l20-o0" stroke="#000000" style="fill: white" stroke-linejoin="round" points="204 360 168 396 156 372"></polygon>
        <polygon id="WEDGE-l21-o0" stroke="#000000" style="fill: white" stroke-linejoin="round" points="204 360 156 372 156 348"></polygon>
        <polygon id="WEDGE-l19-o1" stroke="#000000" style="fill: orange" stroke-linejoin="round" points="192 408 180 456 132 432 168 396"></polygon>
        <polygon id="WEDGE-l20-o1" stroke="#000000" style="fill: blue" stroke-linejoin="round" points="168 396 132 432 108 384 156 372"></polygon>
        <polygon id="WEDGE-l21-o1" stroke="#000000" style="fill: blue" stroke-linejoin="round" points="156 372 108 384 108 336 156 348"></polygon>
        <polygon id="WEDGE-l22-o0" stroke="#000000" style="fill: white" stroke-linejoin="round" transform="translate(180.000000, 342.000000) rotate(90.000000) translate(-180.000000, -342.000000) " points="198 318 186 366 162 354"></polygon>
        <polygon id="WEDGE-l23-o0" stroke="#000000" style="fill: white" stroke-linejoin="round" transform="translate(186.000000, 336.000000) rotate(90.000000) translate(-186.000000, -336.000000) " points="210 318 174 354 162 330"></polygon>
        <polygon id="WEDGE-l12-o0" stroke="#000000" style="fill: white" stroke-linejoin="round" transform="translate(204.000000, 336.000000) rotate(90.000000) translate(-204.000000, -336.000000) " points="228 336 180 348 180 324"></polygon>
        <polygon id="WEDGE-l22-o1" stroke="#000000" style="fill: blue" stroke-linejoin="round" transform="translate(138.000000, 318.000000) rotate(90.000000) translate(-138.000000, -318.000000) " points="168 300 156 348 108 324 144 288"></polygon>
        <polygon id="WEDGE-l23-o1" stroke="#000000" style="fill: red" stroke-linejoin="round" transform="translate(162.000000, 294.000000) rotate(90.000000) translate(-162.000000, -294.000000) " points="192 288 156 324 132 276 180 264"></polygon>
        <polygon id="WEDGE-l12-o1" stroke="#000000" style="fill: red" stroke-linejoin="round" transform="translate(204.000000, 288.000000) rotate(90.000000) translate(-204.000000, -288.000000) " points="228 300 180 312 180 264 228 276"></polygon>
        <polygon id="WEDGE-l13-o0" stroke="#000000" style="fill: white" stroke-linejoin="round" transform="translate(222.000000, 336.000000) rotate(180.000000) translate(-222.000000, -336.000000) " points="240 312 228 360 204 348"></polygon>
        <polygon id="WEDGE-l14-o0" stroke="#000000" style="fill: white" stroke-linejoin="round" transform="translate(228.000000, 342.000000) rotate(180.000000) translate(-228.000000, -342.000000) " points="252 324 216 360 204 336"></polygon>
        <polygon id="WEDGE-l15-o0" stroke="#000000" style="fill: white" stroke-linejoin="round" transform="translate(228.000000, 360.000000) rotate(180.000000) translate(-228.000000, -360.000000) " points="252 360 204 372 204 348"></polygon>
        <polygon id="WEDGE-l13-o1" stroke="#000000" style="fill: red" stroke-linejoin="round" transform="translate(246.000000, 294.000000) rotate(180.000000) translate(-246.000000, -294.000000) " points="276 276 264 324 216 300 252 264"></polygon>
        <polygon id="WEDGE-l14-o1" stroke="#000000" style="fill: green" stroke-linejoin="round" transform="translate(270.000000, 318.000000) rotate(180.000000) translate(-270.000000, -318.000000) " points="300 312 264 348 240 300 288 288"></polygon>
        <polygon id="WEDGE-l15-o1" stroke="#000000" style="fill: green" stroke-linejoin="round" transform="translate(276.000000, 360.000000) rotate(180.000000) translate(-276.000000, -360.000000) " points="300 372 252 384 252 336 300 348"></polygon>
        <polygon id="WEDGE-l16-o0" stroke="#000000" style="fill: white" stroke-linejoin="round" transform="translate(228.000000, 378.000000) rotate(270.000000) translate(-228.000000, -378.000000) " points="246 354 234 402 210 390"></polygon>
        <polygon id="WEDGE-l17-o0" stroke="#000000" style="fill: white" stroke-linejoin="round" transform="translate(222.000000, 384.000000) rotate(270.000000) translate(-222.000000, -384.000000) " points="246 366 210 402 198 378"></polygon>
        <polygon id="WEDGE-l18-o0" stroke="#000000" style="fill: white" stroke-linejoin="round" transform="translate(204.000000, 384.000000) rotate(270.000000) translate(-204.000000, -384.000000) " points="228 384 180 396 180 372"></polygon>
        <polygon id="WEDGE-l16-o1" stroke="#000000" style="fill: green" stroke-linejoin="round" transform="translate(270.000000, 402.000000) rotate(270.000000) translate(-270.000000, -402.000000) " points="300 384 288 432 240 408 276 372"></polygon>
        <polygon id="WEDGE-l17-o1" stroke="#000000" style="fill: orange" stroke-linejoin="round" transform="translate(246.000000, 426.000000) rotate(270.000000) translate(-246.000000, -426.000000) " points="276 420 240 456 216 408 264 396"></polygon>
        <polygon id="WEDGE-l18-o1" stroke="#000000" style="fill: orange" stroke-linejoin="round" transform="translate(204.000000, 432.000000) rotate(270.000000) translate(-204.000000, -432.000000) " points="228 444 180 456 180 408 228 420"></polygon>
    </g>
</svg>
