<?xml version="1.0" encoding="UTF-8"?>
<svg width="2048px" height="2048px" viewBox="0 0 2048 2048" version="1.1" xmlns="http://www.w3.org/2000/svg" xmlns:xlink="http://www.w3.org/1999/xlink">
    <!-- Generator: Sketch 59.1 (86144) - https://sketch.com -->
    <title>e</title>
    <desc>Created with Sketch.</desc>
    <g id="e" stroke="none" stroke-width="1" fill="none" fill-rule="evenodd">
        <path d="M1231.32774,1124.84137 C1263.37484,1124.84137 1288.69738,1134.64134 1307.29614,1154.24158 C1325.8949,1173.84181 1335.19414,1202.66945 1335.19414,1240.72537 C1335.19414,1243.51519 1335.11367,1246.50616 1334.95272,1249.69833 L1334.76494,1252.95757 C1334.47881,1257.39266 1334.19268,1261.32696 1333.90654,1264.76058 L1188.83694,1264.76058 C1190.26762,1277.92277 1196.41942,1288.36654 1207.29254,1296.09217 C1218.16566,1303.81781 1232.75832,1307.68057 1251.07094,1307.68057 C1262.80247,1307.68057 1274.31922,1306.60759 1285.62154,1304.46158 C1296.92387,1302.31556 1306.15157,1299.66886 1313.30494,1296.52138 L1321.88894,1348.45457 C1318.45533,1350.17138 1313.87724,1351.88817 1308.15454,1353.60497 C1302.43185,1355.32178 1296.06545,1356.82397 1289.05514,1358.11157 C1282.04484,1359.39918 1274.53392,1360.47217 1266.52214,1361.33057 C1258.51037,1362.18898 1250.49872,1362.61818 1242.48694,1362.61818 C1222.17138,1362.61818 1204.50282,1359.61381 1189.48074,1353.60497 C1174.45867,1347.59614 1162.01199,1339.36989 1152.14034,1328.92598 C1142.26869,1318.48206 1134.97237,1306.10691 1130.25114,1291.80018 C1125.52992,1277.49344 1123.16934,1262.04239 1123.16934,1245.44657 C1123.16934,1225.41714 1126.24525,1207.89165 1132.39714,1192.86957 C1138.54904,1177.8475 1146.63223,1165.32929 1156.64694,1155.31458 C1166.66166,1145.29986 1178.17841,1137.7174 1191.19754,1132.56697 C1204.21668,1127.41655 1217.59327,1124.84137 1231.32774,1124.84137 Z M1232.18614,1177.63297 C1225.03277,1177.63297 1218.88097,1178.84903 1213.73054,1181.28118 C1208.58012,1183.71332 1204.28816,1186.93229 1200.85454,1190.93818 C1197.42093,1194.94406 1194.77422,1199.59368 1192.91434,1204.88718 C1191.05447,1210.18067 1189.69535,1215.54561 1188.83694,1220.98218 L1273.38934,1220.98218 C1273.10321,1215.54561 1272.17328,1210.2522 1270.59954,1205.10178 C1269.0258,1199.95135 1266.59369,1195.37326 1263.30314,1191.36738 C1260.01259,1187.36149 1255.8637,1184.07099 1250.85634,1181.49577 C1245.84898,1178.92056 1239.62565,1177.63297 1232.18614,1177.63297 Z" id="Shape" fill="#4285F4"></path>
    </g>
</svg>