<?xml version="1.0" encoding="UTF-8"?>
<svg width="2048px" height="2048px" viewBox="0 0 2048 2048" version="1.1" xmlns="http://www.w3.org/2000/svg" xmlns:xlink="http://www.w3.org/1999/xlink">
    <!-- Generator: Sketch 59.1 (86144) - https://sketch.com -->
    <title>i</title>
    <desc>Created with Sketch.</desc>
    <g id="i" stroke="none" stroke-width="1" fill="none" fill-rule="evenodd">
        <path d="M1055.94275,718.857011 L1055.94275,966.205859 L991.991953,966.205859 L991.991953,718.857011 L1055.94275,718.857011 Z M1023.75275,615.849011 C1034.0536,615.849011 1042.99518,619.211044 1050.57775,625.935211 C1058.16032,632.659378 1061.95155,641.887086 1061.95155,653.618611 C1061.95155,665.350136 1058.16032,674.577844 1050.57775,681.302011 C1042.99518,688.026178 1034.0536,691.388211 1023.75275,691.388211 C1013.4519,691.388211 1004.51032,688.026178 996.927753,681.302011 C989.345181,674.577844 985.553953,665.350136 985.553953,653.618611 C985.553953,641.887086 989.345181,632.659378 996.927753,625.935211 C1004.51032,619.211044 1013.4519,615.849011 1023.75275,615.849011 Z" id="Combined-Shape" fill="#0A703E" fill-rule="nonzero"></path>
    </g>
</svg>