<?xml version="1.0" encoding="UTF-8"?>
<svg width="2048px" height="2048px" viewBox="0 0 2048 2048" version="1.1" xmlns="http://www.w3.org/2000/svg" xmlns:xlink="http://www.w3.org/1999/xlink">
    <!-- Generator: Sketch 59.1 (86144) - https://sketch.com -->
    <title>l</title>
    <desc>Created with Sketch.</desc>
    <g id="l" stroke="none" stroke-width="1" fill="none" fill-rule="evenodd">
        <path d="M1055.89814,1080.00418 L1055.90294,1269.48177 C1055.90294,1275.20447 1056.33214,1280.35482 1057.19054,1284.93297 C1058.04895,1289.51113 1059.6942,1293.37389 1062.12634,1296.52138 C1064.55849,1299.66886 1068.06359,1302.24403 1072.64174,1304.24698 C1077.2199,1306.24992 1083.3717,1307.53751 1091.09734,1308.10977 L1082.08414,1360.90137 C1063.48538,1360.61524 1048.392,1358.61233 1036.80354,1354.89257 C1025.21509,1351.17282 1016.05891,1345.95094 1009.33474,1339.22678 C1002.61058,1332.50261 998.032489,1324.34789 995.600343,1314.76238 C993.168198,1305.17686 991.952143,1294.37544 991.952143,1282.35777 L991.946143,1080.00418 L1055.89814,1080.00418 Z" id="Path" fill="#0A703E"></path>
    </g>
</svg>