<?xml version="1.0" encoding="UTF-8"?>
<svg width="2048px" height="2048px" viewBox="0 0 2048 2048" version="1.1" xmlns="http://www.w3.org/2000/svg" xmlns:xlink="http://www.w3.org/1999/xlink">
    <!-- Generator: Sketch 59.1 (86144) - https://sketch.com -->
    <title>tw</title>
    <desc>Created with Sketch.</desc>
    <g id="tw" stroke="none" stroke-width="1" fill="none" fill-rule="evenodd">
        <path d="M636.581153,647.180611 L636.581153,704.264211 L546.878353,704.264211 L546.878353,944.616211 L479.923153,944.616211 L479.923153,704.264211 L390.220353,704.264211 L390.220353,647.180611 L636.581153,647.180611 Z M690.891553,718.857011 L698.402553,752.549211 C701.120833,764.709938 703.982138,777.228147 706.986553,790.104211 C709.990968,802.980275 713.138403,815.927679 716.428953,828.946811 C719.719502,841.965943 723.081535,854.484151 726.515153,866.501811 C730.234904,853.911881 733.883068,841.03601 737.459753,827.873811 C741.036437,814.711612 744.470003,801.764208 747.760553,789.031211 L753.528999,766.575474 C754.776537,761.688328 756.001187,756.869848 757.202953,752.120011 C760.207368,740.245418 762.854074,729.157862 765.143153,718.857011 L811.496753,718.857011 L813.881199,729.42011 C815.121108,734.832789 816.432547,740.442171 817.815526,746.248299 L824.527262,773.957697 C825.740465,778.913515 826.97656,783.938012 828.235553,789.031211 C831.383035,801.764208 834.673535,814.711612 838.107153,827.873811 C841.54077,841.03601 845.117401,853.911881 848.837153,866.501811 C852.27077,854.484151 855.704335,841.965943 859.137953,828.946811 C862.57157,815.927679 865.790538,802.980275 868.794953,790.104211 L873.194253,771.05846 C873.909585,767.928884 874.615974,764.821663 875.313424,761.73679 L884.889953,718.857011 L951.415953,718.857011 C945.120988,741.175523 938.611519,763.279101 931.887353,785.168411 L926.158837,803.650319 C921.414285,818.818291 916.742747,833.402246 912.144153,847.402411 C905.70612,867.002642 899.41125,885.100395 893.259353,901.696211 L889.953439,910.52144 C885.069069,923.418735 880.519937,934.78358 876.305953,944.616211 L826.518753,944.616211 C819.365383,922.869969 812.355187,901.267118 805.487953,879.807011 C798.620718,858.346904 792.325848,836.744053 786.603153,814.997811 C780.880457,836.744053 774.800185,858.346904 768.362153,879.807011 C761.92412,901.267118 755.128522,922.869969 747.975153,944.616211 L698.187953,944.616211 C693.505747,933.691065 688.468899,920.874297 683.077281,906.165584 L681.449153,901.696211 C676.191426,887.174872 670.769467,871.503613 665.183151,854.68207 L662.778953,847.402411 C656.34092,827.80218 649.759919,807.05772 643.035753,785.168411 C636.311586,763.279101 629.802117,741.175523 623.507153,718.857011 L690.891553,718.857011 Z" id="Combined-Shape" fill="#4285F4" fill-rule="nonzero"></path>
    </g>
</svg>