<?xml version="1.0" encoding="UTF-8"?>
<svg width="2048px" height="2048px" viewBox="0 0 2048 2048" version="1.1" xmlns="http://www.w3.org/2000/svg" xmlns:xlink="http://www.w3.org/1999/xlink">
    <!-- Generator: Sketch 59.1 (86144) - https://sketch.com -->
    <title>zz</title>
    <desc>Created with Sketch.</desc>
    <g id="zz" stroke="none" stroke-width="1" fill="none" fill-rule="evenodd">
        <path d="M719.646143,1130.85018 L719.646143,1173.77017 L698.829943,1196.94698 L691.191925,1205.53099 C684.695539,1212.88869 677.870712,1220.75731 670.717343,1229.13697 C660.702627,1240.8685 650.616527,1253.17211 640.458743,1266.04817 C630.300959,1278.92424 621.073252,1291.37091 612.775343,1303.38857 L721.792143,1303.38857 L721.792143,1356.60938 L535.090143,1356.60938 L535.090143,1318.83977 C541.098973,1308.53892 548.323768,1297.45137 556.764743,1285.57677 C565.205719,1273.70218 574.075764,1261.75624 583.375143,1249.73858 C592.674523,1237.72091 601.902231,1226.0611 611.058543,1214.75878 L617.791632,1206.48325 C624.39058,1198.40892 630.587114,1190.93821 636.381343,1184.07097 L540.240543,1184.07097 L540.240543,1130.85018 L719.646143,1130.85018 Z M940.566143,1130.85018 L940.566143,1173.77017 L919.749943,1196.94698 L912.111925,1205.53099 C905.615539,1212.88869 898.790712,1220.75731 891.637343,1229.13697 C881.622627,1240.8685 871.536527,1253.17211 861.378743,1266.04817 C851.220959,1278.92424 841.993252,1291.37091 833.695343,1303.38857 L942.712143,1303.38857 L942.712143,1356.60938 L756.010143,1356.60938 L756.010143,1318.83977 C762.018973,1308.53892 769.243768,1297.45137 777.684743,1285.57677 C786.125719,1273.70218 794.995764,1261.75624 804.295143,1249.73858 C813.594523,1237.72091 822.822231,1226.0611 831.978543,1214.75878 L838.711632,1206.48325 C845.31058,1198.40892 851.507114,1190.93821 857.301343,1184.07097 L761.160543,1184.07097 L761.160543,1130.85018 L940.566143,1130.85018 Z" id="Combined-Shape" fill="#4285F4"></path>
    </g>
</svg>